<svg width="34" height="34" viewBox="0 0 34 34" fill="none" xmlns="http://www.w3.org/2000/svg">
<rect width="34" height="34" rx="17" fill="#FFCA10"/>
<path d="M19.4355 10.3461L10.5267 19.8963C10.3639 20.0708 10.3727 20.3439 10.5464 20.5076L13.8529 23.6235C14.0278 23.7883 14.3034 23.7795 14.4675 23.6036L23.3762 14.0535C23.5391 13.879 23.5302 13.6059 23.3566 13.4422L20.05 10.3263C19.8752 10.1615 19.5995 10.1703 19.4355 10.3461Z" fill="#4309EA"/>
<path d="M20.891 8.84979L20.8856 8.85546C20.7215 9.02979 20.7295 9.30413 20.9038 9.46847L24.2103 12.5843C24.3847 12.7485 24.659 12.7405 24.8233 12.5662L24.8287 12.5605C25.8533 11.4732 25.8025 9.76097 24.7152 8.73646C23.6278 7.71178 21.9156 7.76261 20.8911 8.84996L20.891 8.84979Z" fill="#4309EA"/>
<path d="M9.66161 21.3361L13.0307 24.5108C13.1545 24.6275 13.1018 24.8348 12.9372 24.8783L8.70677 25.9926C8.5516 26.0335 8.40743 25.8976 8.43893 25.7403L9.30028 21.4513C9.33378 21.2844 9.53761 21.2194 9.66145 21.3361H9.66161Z" fill="#4309EA"/>
</svg>
