<svg width="27" height="27" viewBox="0 0 27 27" fill="none" xmlns="http://www.w3.org/2000/svg">
<path fill-rule="evenodd" clip-rule="evenodd" d="M13.5 27C17.0804 27 20.5142 25.5777 23.0459 23.0459C25.5777 20.5142 27 17.0804 27 13.5C27 9.91958 25.5777 6.4858 23.0459 3.95406C20.5142 1.42232 17.0804 0 13.5 0C9.91958 0 6.4858 1.42232 3.95406 3.95406C1.42232 6.4858 0 9.91958 0 13.5C0 17.0804 1.42232 20.5142 3.95406 23.0459C6.4858 25.5777 9.91958 27 13.5 27ZM11.3181 8.93194C10.9998 8.62455 10.5735 8.45445 10.1311 8.4583C9.68862 8.46214 9.26537 8.63962 8.95249 8.95249C8.63962 9.26537 8.46214 9.68862 8.4583 10.1311C8.45445 10.5735 8.62455 10.9998 8.93194 11.3181L11.1139 13.5L8.93194 15.6819C8.77076 15.8376 8.64221 16.0238 8.55377 16.2297C8.46533 16.4356 8.41877 16.657 8.41683 16.8811C8.41488 17.1051 8.45758 17.3273 8.54243 17.5347C8.62727 17.7421 8.75258 17.9305 8.91102 18.089C9.06946 18.2474 9.25788 18.3727 9.46527 18.4576C9.67265 18.5424 9.89486 18.5851 10.1189 18.5832C10.343 18.5812 10.5644 18.5347 10.7703 18.4462C10.9762 18.3578 11.1624 18.2292 11.3181 18.0681L13.5 15.8861L15.6819 18.0681C16.0002 18.3755 16.4265 18.5455 16.8689 18.5417C17.3114 18.5379 17.7346 18.3604 18.0475 18.0475C18.3604 17.7346 18.5379 17.3114 18.5417 16.8689C18.5455 16.4265 18.3755 16.0002 18.0681 15.6819L15.8861 13.5L18.0681 11.3181C18.3755 10.9998 18.5455 10.5735 18.5417 10.1311C18.5379 9.68862 18.3604 9.26537 18.0475 8.95249C17.7346 8.63962 17.3114 8.46214 16.8689 8.4583C16.4265 8.45445 16.0002 8.62455 15.6819 8.93194L13.5 11.1139L11.3181 8.93194Z" fill="#C9C9CD"/>
</svg>
