<svg width="58" height="47" viewBox="0 0 58 47" fill="none" xmlns="http://www.w3.org/2000/svg">
<path d="M33.12 21.5391V25.9132C33.12 27.0656 34.1398 28 35.3982 28H39.7218C40.9799 28 42 27.0659 42 25.9132V12.2844C42 11.7545 41.7798 11.2443 41.3841 10.8578L30.951 0.659944C30.0665 -0.204674 28.5746 -0.222044 27.6666 0.621574L16.6558 10.8502C16.2355 11.2407 16 11.767 16 12.3153V25.913C16 27.0654 17.0198 27.9997 18.2782 27.9997H22.7982C24.0563 27.9997 25.0764 27.0656 25.0764 25.913V21.5388C25.0764 19.5042 26.8772 17.8551 29.0982 17.8551C31.3196 17.8551 33.12 19.5045 33.12 21.5388V21.5391Z" fill="#FAFAFF"/>
<path d="M3.95884 44H1.15384V36.102H3.95884C4.79484 36.102 5.51351 36.267 6.11484 36.597C6.71618 36.927 7.17818 37.3853 7.50084 37.972C7.82351 38.5587 7.98484 39.237 7.98484 40.007C7.98484 40.7697 7.81984 41.4553 7.48984 42.064C7.15984 42.6653 6.69051 43.1383 6.08184 43.483C5.48051 43.8277 4.77284 44 3.95884 44ZM2.82584 37.543V42.559H3.87084C4.39884 42.559 4.83884 42.46 5.19084 42.262C5.55018 42.064 5.81784 41.7743 5.99384 41.393C6.17718 41.0117 6.26884 40.5497 6.26884 40.007C6.26884 39.479 6.17718 39.0317 5.99384 38.665C5.81784 38.2983 5.55018 38.0197 5.19084 37.829C4.83884 37.6383 4.39884 37.543 3.87084 37.543H2.82584ZM12.512 44V43.274C12.3214 43.5453 12.0794 43.7543 11.786 43.901C11.4927 44.0403 11.1444 44.11 10.741 44.11C10.1324 44.11 9.64103 43.945 9.26703 43.615C8.89303 43.285 8.70603 42.845 8.70603 42.295C8.70603 41.723 8.93336 41.2867 9.38803 40.986C9.8427 40.6853 10.4954 40.535 11.346 40.535C11.5147 40.535 11.676 40.5423 11.83 40.557C11.984 40.5643 12.149 40.579 12.325 40.601V40.249C12.325 39.919 12.237 39.6623 12.061 39.479C11.885 39.2957 11.6357 39.204 11.313 39.204C10.983 39.204 10.7227 39.2957 10.532 39.479C10.3414 39.6623 10.2314 39.919 10.202 40.249H8.82703C8.85636 39.7943 8.97736 39.402 9.19003 39.072C9.41003 38.7347 9.6997 38.4743 10.059 38.291C10.4257 38.1077 10.8437 38.016 11.313 38.016C12.083 38.016 12.6807 38.2177 13.106 38.621C13.5387 39.0243 13.755 39.5853 13.755 40.304V44H12.512ZM10.147 42.251C10.147 42.493 10.2277 42.6873 10.389 42.834C10.5577 42.9807 10.785 43.054 11.071 43.054C11.4597 43.054 11.764 42.955 11.984 42.757C12.2114 42.5517 12.325 42.2803 12.325 41.943V41.525C12.149 41.4957 11.9914 41.4773 11.852 41.47C11.7127 41.4553 11.577 41.448 11.445 41.448C11.0197 41.448 10.697 41.514 10.477 41.646C10.257 41.778 10.147 41.9797 10.147 42.251ZM20.0336 42.119C20.0336 42.7277 19.8063 43.2117 19.3516 43.571C18.9043 43.9303 18.2626 44.11 17.4266 44.11C16.598 44.11 15.949 43.923 15.4796 43.549C15.0176 43.1677 14.7573 42.6507 14.6986 41.998H16.1616C16.169 42.2987 16.29 42.5407 16.5246 42.724C16.7666 42.9 17.0746 42.988 17.4486 42.988C17.7493 42.988 17.9986 42.9403 18.1966 42.845C18.3946 42.7423 18.4936 42.5883 18.4936 42.383C18.4936 42.1997 18.4313 42.0603 18.3066 41.965C18.182 41.8697 17.9766 41.7963 17.6906 41.745L16.6346 41.547C16.1066 41.4517 15.6923 41.261 15.3916 40.975C15.091 40.689 14.9406 40.3187 14.9406 39.864C14.9406 39.4973 15.0396 39.1747 15.2376 38.896C15.4356 38.6173 15.7143 38.401 16.0736 38.247C16.433 38.093 16.8546 38.016 17.3386 38.016C17.83 38.016 18.2626 38.1003 18.6366 38.269C19.018 38.4303 19.3186 38.665 19.5386 38.973C19.766 39.281 19.898 39.644 19.9346 40.062H18.4716C18.4496 39.776 18.336 39.5523 18.1306 39.391C17.9253 39.2223 17.6613 39.138 17.3386 39.138C17.06 39.138 16.8326 39.1893 16.6566 39.292C16.488 39.3873 16.4036 39.5303 16.4036 39.721C16.4036 39.897 16.466 40.029 16.5906 40.117C16.7153 40.1977 16.9096 40.2637 17.1736 40.315L18.3066 40.524C18.8786 40.634 19.3076 40.821 19.5936 41.085C19.887 41.349 20.0336 41.6937 20.0336 42.119ZM22.6065 40.799V44H21.0775V36.102H22.6065V38.896C22.8045 38.6247 23.0355 38.412 23.2995 38.258C23.5708 38.0967 23.9008 38.016 24.2895 38.016C24.8835 38.016 25.3638 38.2067 25.7305 38.588C26.0972 38.962 26.2805 39.501 26.2805 40.205V44H24.7625V40.722C24.7625 40.282 24.6745 39.9483 24.4985 39.721C24.3298 39.4863 24.0732 39.369 23.7285 39.369C23.5232 39.369 23.3325 39.424 23.1565 39.534C22.9878 39.6367 22.8522 39.7943 22.7495 40.007C22.6542 40.2123 22.6065 40.4763 22.6065 40.799ZM33.461 41.063C33.461 41.635 33.351 42.152 33.131 42.614C32.9183 43.076 32.6177 43.4427 32.229 43.714C31.8403 43.978 31.382 44.11 30.854 44.11C30.48 44.11 30.1353 44.0257 29.82 43.857C29.5047 43.6883 29.2333 43.4537 29.006 43.153V44H27.598V36.102H29.127V38.885C29.347 38.599 29.6 38.3827 29.886 38.236C30.1793 38.0893 30.502 38.016 30.854 38.016C31.382 38.016 31.8403 38.148 32.229 38.412C32.6177 38.676 32.9183 39.039 33.131 39.501C33.351 39.963 33.461 40.4837 33.461 41.063ZM31.888 41.063C31.888 40.4983 31.7523 40.0767 31.481 39.798C31.2097 39.512 30.887 39.369 30.513 39.369C30.2637 39.369 30.0327 39.4313 29.82 39.556C29.6147 39.6807 29.4497 39.8677 29.325 40.117C29.2003 40.3663 29.138 40.6743 29.138 41.041C29.138 41.4077 29.1967 41.7193 29.314 41.976C29.4387 42.2253 29.6073 42.416 29.82 42.548C30.0327 42.68 30.2637 42.746 30.513 42.746C30.887 42.746 31.2097 42.603 31.481 42.317C31.7523 42.031 31.888 41.613 31.888 41.063ZM37.0368 44.11C36.6115 44.11 36.2155 44.033 35.8488 43.879C35.4895 43.725 35.1741 43.5087 34.9028 43.23C34.6388 42.9513 34.4298 42.6287 34.2758 42.262C34.1291 41.888 34.0558 41.4883 34.0558 41.063C34.0558 40.6303 34.1291 40.2307 34.2758 39.864C34.4298 39.4973 34.6388 39.1747 34.9028 38.896C35.1741 38.6173 35.4895 38.401 35.8488 38.247C36.2155 38.093 36.6115 38.016 37.0368 38.016C37.4621 38.016 37.8545 38.093 38.2138 38.247C38.5805 38.401 38.8958 38.6173 39.1598 38.896C39.4311 39.1747 39.6401 39.4973 39.7868 39.864C39.9408 40.2307 40.0178 40.6303 40.0178 41.063C40.0178 41.4883 39.9408 41.888 39.7868 42.262C39.6401 42.6287 39.4311 42.9513 39.1598 43.23C38.8958 43.5087 38.5805 43.725 38.2138 43.879C37.8545 44.033 37.4621 44.11 37.0368 44.11ZM37.0368 42.757C37.2935 42.757 37.5281 42.691 37.7408 42.559C37.9535 42.427 38.1221 42.2363 38.2468 41.987C38.3788 41.7303 38.4448 41.4223 38.4448 41.063C38.4448 40.6963 38.3788 40.3883 38.2468 40.139C38.1221 39.8897 37.9535 39.7027 37.7408 39.578C37.5281 39.446 37.2935 39.38 37.0368 39.38C36.7875 39.38 36.5528 39.446 36.3328 39.578C36.1201 39.7027 35.9478 39.8897 35.8158 40.139C35.6911 40.3883 35.6288 40.6963 35.6288 41.063C35.6288 41.4223 35.6911 41.7303 35.8158 41.987C35.9478 42.2363 36.1201 42.427 36.3328 42.559C36.5528 42.691 36.7875 42.757 37.0368 42.757ZM44.4915 44V43.274C44.3009 43.5453 44.0589 43.7543 43.7655 43.901C43.4722 44.0403 43.1239 44.11 42.7205 44.11C42.1119 44.11 41.6205 43.945 41.2465 43.615C40.8725 43.285 40.6855 42.845 40.6855 42.295C40.6855 41.723 40.9129 41.2867 41.3675 40.986C41.8222 40.6853 42.4749 40.535 43.3255 40.535C43.4942 40.535 43.6555 40.5423 43.8095 40.557C43.9635 40.5643 44.1285 40.579 44.3045 40.601V40.249C44.3045 39.919 44.2165 39.6623 44.0405 39.479C43.8645 39.2957 43.6152 39.204 43.2925 39.204C42.9625 39.204 42.7022 39.2957 42.5115 39.479C42.3209 39.6623 42.2109 39.919 42.1815 40.249H40.8065C40.8359 39.7943 40.9569 39.402 41.1695 39.072C41.3895 38.7347 41.6792 38.4743 42.0385 38.291C42.4052 38.1077 42.8232 38.016 43.2925 38.016C44.0625 38.016 44.6602 38.2177 45.0855 38.621C45.5182 39.0243 45.7345 39.5853 45.7345 40.304V44H44.4915ZM42.1265 42.251C42.1265 42.493 42.2072 42.6873 42.3685 42.834C42.5372 42.9807 42.7645 43.054 43.0505 43.054C43.4392 43.054 43.7435 42.955 43.9635 42.757C44.1909 42.5517 44.3045 42.2803 44.3045 41.943V41.525C44.1285 41.4957 43.9709 41.4773 43.8315 41.47C43.6922 41.4553 43.5565 41.448 43.4245 41.448C42.9992 41.448 42.6765 41.514 42.4565 41.646C42.2365 41.778 42.1265 41.9797 42.1265 42.251ZM48.5811 41.151V44H47.0521V38.126H48.4601V39.259C48.6801 38.885 48.9991 38.5917 49.4171 38.379C49.8351 38.1663 50.2788 38.06 50.7481 38.06V39.644C50.3228 39.6147 49.9451 39.6367 49.6151 39.71C49.2925 39.776 49.0395 39.9263 48.8561 40.161C48.6728 40.3883 48.5811 40.7183 48.5811 41.151ZM51.1144 41.063C51.1144 40.4837 51.2207 39.963 51.4334 39.501C51.6534 39.039 51.9577 38.676 52.3464 38.412C52.7424 38.148 53.2007 38.016 53.7214 38.016C54.0734 38.016 54.396 38.0893 54.6894 38.236C54.9827 38.3827 55.2394 38.599 55.4594 38.885V36.102H56.9774V44H55.5804V43.153C55.3457 43.4537 55.0707 43.6883 54.7554 43.857C54.4474 44.0257 54.1027 44.11 53.7214 44.11C53.2007 44.11 52.7424 43.978 52.3464 43.714C51.9577 43.4427 51.6534 43.076 51.4334 42.614C51.2207 42.152 51.1144 41.635 51.1144 41.063ZM52.6874 41.063C52.6874 41.613 52.823 42.031 53.0944 42.317C53.3657 42.603 53.6884 42.746 54.0624 42.746C54.319 42.746 54.55 42.68 54.7554 42.548C54.968 42.416 55.1367 42.2253 55.2614 41.976C55.386 41.7193 55.4484 41.4077 55.4484 41.041C55.4484 40.6743 55.3824 40.3663 55.2504 40.117C55.1257 39.8677 54.957 39.6807 54.7444 39.556C54.539 39.4313 54.3117 39.369 54.0624 39.369C53.6884 39.369 53.3657 39.512 53.0944 39.798C52.823 40.0767 52.6874 40.4983 52.6874 41.063Z" fill="#FAFAFF"/>
</svg>
