<svg width="50" height="47" viewBox="0 0 50 47" fill="none" xmlns="http://www.w3.org/2000/svg">
<path d="M22.9097 15.2191C22.7124 15.0781 22.4248 15.0073 22.0466 15.0073H21.0439V16.7101H22.0466C22.4246 16.7101 22.7122 16.6396 22.9097 16.4983C23.1069 16.3573 23.2055 16.1455 23.2055 15.8629C23.2055 15.5803 23.1069 15.3607 22.9097 15.2194V15.2191Z" fill="#FAFAFF"/>
<path d="M28.0018 16.3743C27.8211 16.3743 27.6511 16.4222 27.4922 16.5182C27.3334 16.6141 27.2073 16.7512 27.1143 16.9299C27.021 17.1085 26.9746 17.3335 26.9746 17.6052C26.9746 17.8769 27.021 18.0968 27.1143 18.2806C27.2073 18.4644 27.332 18.6018 27.4882 18.6923C27.6444 18.7831 27.8155 18.8282 28.0018 18.8282C28.2811 18.8282 28.5224 18.7258 28.7249 18.5204C28.9275 18.3153 29.029 18.0102 29.029 17.6052C29.029 17.2003 28.9275 16.9006 28.7249 16.69C28.5221 16.4795 28.2811 16.3743 28.0018 16.3743Z" fill="#FAFAFF"/>
<path d="M29.5682 7.20406C29.2708 6.92561 29.2191 6.48021 29.4406 6.14161L32.6077 1.30304C32.9774 0.738632 32.5608 0 31.8729 0H18.0797C17.4019 0 16.9837 0.719447 17.3329 1.28437L20.3436 6.15483C20.5499 6.4885 20.4974 6.91758 20.2127 7.1911C14.53 12.6452 12.1811 17.9066 14.2299 22.9142C15.2065 25.3012 17.42 26.9934 20.0104 27.4951C23.5177 28.1743 26.8808 28.1684 30.1178 27.4766C32.7983 26.9039 35.0222 25.0772 35.9335 22.559C37.7054 17.6621 35.2491 12.5249 29.5685 7.20406H29.5682ZM24.3666 19.3364C24.485 19.5088 24.3578 19.7395 24.1449 19.7395H23.3021C23.2109 19.7395 23.1264 19.6944 23.0774 19.6198L21.8247 17.7093H21.044V19.4805C21.044 19.6237 20.9246 19.7398 20.7775 19.7398H20.0613C19.9142 19.7398 19.7948 19.6237 19.7948 19.4805V14.2596C19.7948 14.1165 19.9142 14.0003 20.0613 14.0003H22.104C22.849 14.0003 23.4271 14.1616 23.8381 14.4838C24.2491 14.8063 24.4543 15.266 24.4543 15.8628C24.4543 16.2465 24.3378 16.5862 24.1051 16.882C23.8722 17.1778 23.5449 17.3922 23.123 17.5255L24.3663 19.3364H24.3666ZM29.9624 18.7365C29.8006 19.0696 29.5762 19.3333 29.2886 19.528C29.001 19.7227 28.6572 19.8197 28.2572 19.8197C27.9997 19.8197 27.7611 19.7662 27.5421 19.6597C27.323 19.5531 27.1311 19.3958 26.9669 19.1881V21.1268C26.9669 21.2127 26.8952 21.2824 26.807 21.2824H25.9845C25.8962 21.2824 25.8245 21.2127 25.8245 21.1268V15.6264C25.8245 15.5406 25.8962 15.4708 25.9845 15.4708H26.69C26.7931 15.4708 26.8765 15.552 26.8765 15.6523V16.0943C27.0463 15.8652 27.2491 15.6907 27.4848 15.5706C27.7204 15.4509 27.9778 15.3907 28.2572 15.3907C28.6516 15.3907 28.9938 15.4879 29.2844 15.6824C29.5746 15.8768 29.8006 16.1408 29.9624 16.4739C30.1239 16.8071 30.205 17.184 30.205 17.6051C30.205 18.0261 30.1239 18.4031 29.9624 18.7362V18.7365Z" fill="#FAFAFF"/>
<path d="M4.47606 44.165C3.92606 44.165 3.40906 44.0623 2.92506 43.857C2.44106 43.6443 2.0194 43.351 1.66006 42.977C1.30073 42.5957 1.0184 42.1557 0.813063 41.657C0.615063 41.1583 0.516063 40.6193 0.516063 40.04C0.516063 39.4607 0.615063 38.9253 0.813063 38.434C1.0184 37.9353 1.30073 37.499 1.66006 37.125C2.0194 36.751 2.44106 36.4613 2.92506 36.256C3.40906 36.0433 3.92606 35.937 4.47606 35.937C5.17273 35.937 5.8034 36.08 6.36806 36.366C6.94006 36.652 7.4094 37.0517 7.77606 37.565C8.14273 38.0783 8.37006 38.6723 8.45806 39.347H6.68706C6.6284 38.9657 6.49273 38.632 6.28006 38.346C6.07473 38.06 5.81806 37.8363 5.51006 37.675C5.2094 37.5137 4.87206 37.433 4.49806 37.433C4.1534 37.433 3.84173 37.4953 3.56306 37.62C3.29173 37.7447 3.0534 37.9243 2.84806 38.159C2.65006 38.3937 2.49606 38.6723 2.38606 38.995C2.2834 39.3103 2.23206 39.6587 2.23206 40.04C2.23206 40.4287 2.2834 40.7843 2.38606 41.107C2.49606 41.4223 2.65006 41.6973 2.84806 41.932C3.0534 42.1667 3.29173 42.35 3.56306 42.482C3.84173 42.6067 4.1534 42.669 4.49806 42.669C4.87206 42.669 5.21306 42.5883 5.52106 42.427C5.82906 42.2583 6.08206 42.031 6.28006 41.745C6.4854 41.4517 6.62106 41.118 6.68706 40.744H8.45806C8.36273 41.426 8.13173 42.0237 7.76506 42.537C7.3984 43.0503 6.93273 43.45 6.36806 43.736C5.8034 44.022 5.17273 44.165 4.47606 44.165ZM12.9915 44V43.274C12.8009 43.5453 12.5589 43.7543 12.2655 43.901C11.9722 44.0403 11.6239 44.11 11.2205 44.11C10.6119 44.11 10.1205 43.945 9.74652 43.615C9.37252 43.285 9.18552 42.845 9.18552 42.295C9.18552 41.723 9.41286 41.2867 9.86752 40.986C10.3222 40.6853 10.9749 40.535 11.8255 40.535C11.9942 40.535 12.1555 40.5423 12.3095 40.557C12.4635 40.5643 12.6285 40.579 12.8045 40.601V40.249C12.8045 39.919 12.7165 39.6623 12.5405 39.479C12.3645 39.2957 12.1152 39.204 11.7925 39.204C11.4625 39.204 11.2022 39.2957 11.0115 39.479C10.8209 39.6623 10.7109 39.919 10.6815 40.249H9.30652C9.33586 39.7943 9.45686 39.402 9.66952 39.072C9.88952 38.7347 10.1792 38.4743 10.5385 38.291C10.9052 38.1077 11.3232 38.016 11.7925 38.016C12.5625 38.016 13.1602 38.2177 13.5855 38.621C14.0182 39.0243 14.2345 39.5853 14.2345 40.304V44H12.9915ZM10.6265 42.251C10.6265 42.493 10.7072 42.6873 10.8685 42.834C11.0372 42.9807 11.2645 43.054 11.5505 43.054C11.9392 43.054 12.2435 42.955 12.4635 42.757C12.6909 42.5517 12.8045 42.2803 12.8045 41.943V41.525C12.6285 41.4957 12.4709 41.4773 12.3315 41.47C12.1922 41.4553 12.0565 41.448 11.9245 41.448C11.4992 41.448 11.1765 41.514 10.9565 41.646C10.7365 41.778 10.6265 41.9797 10.6265 42.251ZM20.5131 42.119C20.5131 42.7277 20.2858 43.2117 19.8311 43.571C19.3838 43.9303 18.7421 44.11 17.9061 44.11C17.0775 44.11 16.4285 43.923 15.9591 43.549C15.4971 43.1677 15.2368 42.6507 15.1781 41.998H16.6411C16.6485 42.2987 16.7695 42.5407 17.0041 42.724C17.2461 42.9 17.5541 42.988 17.9281 42.988C18.2288 42.988 18.4781 42.9403 18.6761 42.845C18.8741 42.7423 18.9731 42.5883 18.9731 42.383C18.9731 42.1997 18.9108 42.0603 18.7861 41.965C18.6615 41.8697 18.4561 41.7963 18.1701 41.745L17.1141 41.547C16.5861 41.4517 16.1718 41.261 15.8711 40.975C15.5705 40.689 15.4201 40.3187 15.4201 39.864C15.4201 39.4973 15.5191 39.1747 15.7171 38.896C15.9151 38.6173 16.1938 38.401 16.5531 38.247C16.9125 38.093 17.3341 38.016 17.8181 38.016C18.3095 38.016 18.7421 38.1003 19.1161 38.269C19.4975 38.4303 19.7981 38.665 20.0181 38.973C20.2455 39.281 20.3775 39.644 20.4141 40.062H18.9511C18.9291 39.776 18.8155 39.5523 18.6101 39.391C18.4048 39.2223 18.1408 39.138 17.8181 39.138C17.5395 39.138 17.3121 39.1893 17.1361 39.292C16.9675 39.3873 16.8831 39.5303 16.8831 39.721C16.8831 39.897 16.9455 40.029 17.0701 40.117C17.1948 40.1977 17.3891 40.2637 17.6531 40.315L18.7861 40.524C19.3581 40.634 19.7871 40.821 20.0731 41.085C20.3665 41.349 20.5131 41.6937 20.5131 42.119ZM23.086 40.799V44H21.557V36.102H23.086V38.896C23.284 38.6247 23.515 38.412 23.779 38.258C24.0503 38.0967 24.3803 38.016 24.769 38.016C25.363 38.016 25.8433 38.2067 26.21 38.588C26.5767 38.962 26.76 39.501 26.76 40.205V44H25.242V40.722C25.242 40.282 25.154 39.9483 24.978 39.721C24.8093 39.4863 24.5527 39.369 24.208 39.369C24.0027 39.369 23.812 39.424 23.636 39.534C23.4673 39.6367 23.3317 39.7943 23.229 40.007C23.1337 40.2123 23.086 40.4763 23.086 40.799ZM30.1135 44H28.5955V39.435H27.4075V38.126H28.5955V37.807C28.5955 37.2203 28.7495 36.7693 29.0575 36.454C29.3729 36.1387 29.8349 35.981 30.4435 35.981C30.6342 35.981 30.8065 35.9993 30.9605 36.036C31.1219 36.0653 31.2649 36.1057 31.3895 36.157V37.367C31.3089 37.3303 31.2172 37.3047 31.1145 37.29C31.0119 37.2753 30.9092 37.268 30.8065 37.268C30.6012 37.268 30.4325 37.312 30.3005 37.4C30.1759 37.488 30.1135 37.6347 30.1135 37.84V38.126H31.6425V39.435H30.1135V44ZM33.9635 44H32.4235V36.102H33.9635V44ZM37.9245 44.11C37.4992 44.11 37.1032 44.033 36.7365 43.879C36.3772 43.725 36.0618 43.5087 35.7905 43.23C35.5265 42.9513 35.3175 42.6287 35.1635 42.262C35.0168 41.888 34.9435 41.4883 34.9435 41.063C34.9435 40.6303 35.0168 40.2307 35.1635 39.864C35.3175 39.4973 35.5265 39.1747 35.7905 38.896C36.0618 38.6173 36.3772 38.401 36.7365 38.247C37.1032 38.093 37.4992 38.016 37.9245 38.016C38.3498 38.016 38.7422 38.093 39.1015 38.247C39.4682 38.401 39.7835 38.6173 40.0475 38.896C40.3188 39.1747 40.5278 39.4973 40.6745 39.864C40.8285 40.2307 40.9055 40.6303 40.9055 41.063C40.9055 41.4883 40.8285 41.888 40.6745 42.262C40.5278 42.6287 40.3188 42.9513 40.0475 43.23C39.7835 43.5087 39.4682 43.725 39.1015 43.879C38.7422 44.033 38.3498 44.11 37.9245 44.11ZM37.9245 42.757C38.1812 42.757 38.4158 42.691 38.6285 42.559C38.8412 42.427 39.0098 42.2363 39.1345 41.987C39.2665 41.7303 39.3325 41.4223 39.3325 41.063C39.3325 40.6963 39.2665 40.3883 39.1345 40.139C39.0098 39.8897 38.8412 39.7027 38.6285 39.578C38.4158 39.446 38.1812 39.38 37.9245 39.38C37.6752 39.38 37.4405 39.446 37.2205 39.578C37.0078 39.7027 36.8355 39.8897 36.7035 40.139C36.5788 40.3883 36.5165 40.6963 36.5165 41.063C36.5165 41.4223 36.5788 41.7303 36.7035 41.987C36.8355 42.2363 37.0078 42.427 37.2205 42.559C37.4405 42.691 37.6752 42.757 37.9245 42.757ZM46.5488 44L45.4378 40.183L44.3378 44H42.8088L41.1368 38.126H42.6218L43.6228 41.844L44.7008 38.126H46.2078L47.2528 41.844L48.2428 38.126H49.7498L48.0668 44H46.5488Z" fill="#FAFAFF"/>
</svg>
