<svg width="24" height="24" viewBox="0 0 24 24" fill="none" xmlns="http://www.w3.org/2000/svg">
<path d="M12.1138 24H11.8858C10.7029 24 9.744 23.0411 9.744 21.8582V14.1171H2.14178C0.958889 14.1171 0 13.1582 0 11.9753C0 10.7924 0.958889 9.83356 2.14178 9.83356H9.74378V2.14178C9.74378 0.958889 10.7027 0 11.8856 0H12.1136C13.2967 0 14.2556 0.958889 14.2556 2.14178V9.83356H21.8582C23.0411 9.83356 24 10.7924 24 11.9753C24 13.1582 23.0411 14.1171 21.8582 14.1171H14.2556V21.8582C14.2556 23.0411 13.2967 24 12.1138 24Z" fill="#262838"/>
</svg>
