<svg width="46" height="47" viewBox="0 0 46 47" fill="none" xmlns="http://www.w3.org/2000/svg">
<path fill-rule="evenodd" clip-rule="evenodd" d="M27.804 1.17081V2.34163H31.0343C32.3947 2.34163 33.4973 3.44426 33.4973 4.80459V25.537C33.4973 26.8974 32.3947 28 31.0343 28H14.9649C13.6046 28 12.502 26.8974 12.502 25.537V4.80459C12.502 3.44426 13.6046 2.34163 14.9649 2.34163H17.7722V1.17081C17.7722 0.524222 18.2964 0 18.943 0H26.6331C27.2797 0 27.804 0.524222 27.804 1.17081ZM27.5033 9.87259H18.5156C17.8687 9.87259 17.3276 9.36004 17.317 8.71345C17.3064 8.06685 17.8381 7.51385 18.4964 7.51385H27.4841C28.131 7.51385 28.6721 8.02641 28.6827 8.673C28.6938 9.3336 28.1616 9.87259 27.5033 9.87259ZM18.5155 13.5126H23.8886C24.5469 13.5126 25.0786 12.9596 25.068 12.313C25.0574 11.6664 24.5163 11.1539 23.8695 11.1539H18.4963C17.8381 11.1539 17.3063 11.7069 17.3169 12.3534C17.3276 13 17.8686 13.5126 18.5155 13.5126ZM20.7506 17.1529H18.5155C17.8686 17.1529 17.3276 16.6403 17.3169 15.9937C17.3058 15.3331 17.8381 14.7941 18.4963 14.7941H20.7314C21.3782 14.7941 21.9193 15.3067 21.9299 15.9533C21.9411 16.6139 21.4088 17.1529 20.7506 17.1529Z" fill="#FAFAFF"/>
<path d="M4.09521 41.426H2.85221V44H1.18021V36.102H4.09521C4.74054 36.102 5.29421 36.201 5.75621 36.399C6.22554 36.597 6.58488 36.8903 6.83421 37.279C7.09088 37.6677 7.21921 38.1517 7.21921 38.731C7.21921 39.303 7.09088 39.7907 6.83421 40.194C6.58488 40.5973 6.22554 40.9053 5.75621 41.118C5.29421 41.3233 4.74054 41.426 4.09521 41.426ZM4.08421 37.51H2.85221V40.018H4.08421C4.55354 40.018 4.91654 39.9043 5.17321 39.677C5.42988 39.4423 5.55821 39.1307 5.55821 38.742C5.55821 38.3533 5.42988 38.0527 5.17321 37.84C4.91654 37.62 4.55354 37.51 4.08421 37.51ZM9.76399 44H8.22399V36.102H9.76399V44ZM14.6331 44V43.274C14.4425 43.5453 14.2005 43.7543 13.9071 43.901C13.6138 44.0403 13.2655 44.11 12.8621 44.11C12.2535 44.11 11.7621 43.945 11.3881 43.615C11.0141 43.285 10.8271 42.845 10.8271 42.295C10.8271 41.723 11.0545 41.2867 11.5091 40.986C11.9638 40.6853 12.6165 40.535 13.4671 40.535C13.6358 40.535 13.7971 40.5423 13.9511 40.557C14.1051 40.5643 14.2701 40.579 14.4461 40.601V40.249C14.4461 39.919 14.3581 39.6623 14.1821 39.479C14.0061 39.2957 13.7568 39.204 13.4341 39.204C13.1041 39.204 12.8438 39.2957 12.6531 39.479C12.4625 39.6623 12.3525 39.919 12.3231 40.249H10.9481C10.9775 39.7943 11.0985 39.402 11.3111 39.072C11.5311 38.7347 11.8208 38.4743 12.1801 38.291C12.5468 38.1077 12.9648 38.016 13.4341 38.016C14.2041 38.016 14.8018 38.2177 15.2271 38.621C15.6598 39.0243 15.8761 39.5853 15.8761 40.304V44H14.6331ZM12.2681 42.251C12.2681 42.493 12.3488 42.6873 12.5101 42.834C12.6788 42.9807 12.9061 43.054 13.1921 43.054C13.5808 43.054 13.8851 42.955 14.1051 42.757C14.3325 42.5517 14.4461 42.2803 14.4461 41.943V41.525C14.2701 41.4957 14.1125 41.4773 13.9731 41.47C13.8338 41.4553 13.6981 41.448 13.5661 41.448C13.1408 41.448 12.8181 41.514 12.5981 41.646C12.3781 41.778 12.2681 41.9797 12.2681 42.251ZM18.7227 40.799V44H17.1937V38.126H18.6017V38.962C18.8217 38.6687 19.0784 38.4377 19.3717 38.269C19.6724 38.1003 20.0171 38.016 20.4057 38.016C20.9997 38.016 21.4801 38.2067 21.8467 38.588C22.2134 38.962 22.3967 39.501 22.3967 40.205V44H20.8787V40.722C20.8787 40.282 20.7907 39.9483 20.6147 39.721C20.4461 39.4863 20.1894 39.369 19.8447 39.369C19.6394 39.369 19.4487 39.424 19.2727 39.534C19.1041 39.6367 18.9684 39.7943 18.8657 40.007C18.7704 40.2123 18.7227 40.4763 18.7227 40.799ZM25.2432 40.799V44H23.7142V38.126H25.1222V38.962C25.3422 38.6687 25.5989 38.4377 25.8922 38.269C26.1929 38.1003 26.5376 38.016 26.9262 38.016C27.5202 38.016 28.0006 38.2067 28.3672 38.588C28.7339 38.962 28.9172 39.501 28.9172 40.205V44H27.3992V40.722C27.3992 40.282 27.3112 39.9483 27.1352 39.721C26.9666 39.4863 26.7099 39.369 26.3652 39.369C26.1599 39.369 25.9692 39.424 25.7932 39.534C25.6246 39.6367 25.4889 39.7943 25.3862 40.007C25.2909 40.2123 25.2432 40.4763 25.2432 40.799ZM31.7637 44H30.2347V38.126H31.7637V44ZM32.0057 36.762C32.0057 37.0187 31.9104 37.235 31.7197 37.411C31.5364 37.5797 31.2907 37.664 30.9827 37.664C30.6821 37.664 30.4364 37.5797 30.2457 37.411C30.0624 37.235 29.9707 37.0187 29.9707 36.762C29.9707 36.4907 30.0624 36.2707 30.2457 36.102C30.4364 35.926 30.6821 35.838 30.9827 35.838C31.2907 35.838 31.5364 35.926 31.7197 36.102C31.9104 36.2707 32.0057 36.4907 32.0057 36.762ZM34.6534 40.799V44H33.1244V38.126H34.5324V38.962C34.7524 38.6687 35.009 38.4377 35.3024 38.269C35.603 38.1003 35.9477 38.016 36.3364 38.016C36.9304 38.016 37.4107 38.2067 37.7774 38.588C38.144 38.962 38.3274 39.501 38.3274 40.205V44H36.8094V40.722C36.8094 40.282 36.7214 39.9483 36.5454 39.721C36.3767 39.4863 36.12 39.369 35.7754 39.369C35.57 39.369 35.3794 39.424 35.2034 39.534C35.0347 39.6367 34.899 39.7943 34.7964 40.007C34.701 40.2123 34.6534 40.4763 34.6534 40.799ZM42.1419 46.233C41.6212 46.233 41.1592 46.1413 40.7559 45.958C40.3526 45.782 40.0372 45.5253 39.8099 45.188C39.5826 44.858 39.4579 44.4693 39.4359 44.022H40.9099C40.9466 44.3593 41.0676 44.6123 41.2729 44.781C41.4782 44.957 41.7642 45.045 42.1309 45.045C42.5562 45.045 42.8752 44.935 43.0879 44.715C43.3079 44.495 43.4179 44.1723 43.4179 43.747V42.889C43.2566 43.1677 43.0329 43.3877 42.7469 43.549C42.4609 43.703 42.1382 43.78 41.7789 43.78C41.3022 43.78 40.8732 43.6553 40.4919 43.406C40.1106 43.1567 39.8099 42.8157 39.5899 42.383C39.3699 41.943 39.2599 41.448 39.2599 40.898C39.2599 40.326 39.3626 39.8237 39.5679 39.391C39.7806 38.9583 40.0702 38.621 40.4369 38.379C40.8109 38.137 41.2399 38.016 41.7239 38.016C42.1199 38.016 42.4682 38.093 42.7689 38.247C43.0696 38.3937 43.3262 38.621 43.5389 38.929V38.126H44.9359V43.725C44.9359 44.5097 44.6866 45.122 44.1879 45.562C43.6966 46.0093 43.0146 46.233 42.1419 46.233ZM40.7889 40.898C40.7889 41.3747 40.9062 41.756 41.1409 42.042C41.3756 42.3207 41.6872 42.46 42.0759 42.46C42.3472 42.46 42.5819 42.3977 42.7799 42.273C42.9779 42.141 43.1319 41.9577 43.2419 41.723C43.3519 41.4883 43.4069 41.217 43.4069 40.909C43.4069 40.4323 43.2859 40.051 43.0439 39.765C42.8019 39.479 42.4792 39.336 42.0759 39.336C41.6872 39.336 41.3756 39.479 41.1409 39.765C40.9062 40.0437 40.7889 40.4213 40.7889 40.898Z" fill="#FAFAFF"/>
</svg>
