<svg width="31" height="47" viewBox="0 0 31 47" fill="none" xmlns="http://www.w3.org/2000/svg">
<g clip-path="url(#clip0_3511_34562)">
<path d="M20.0051 12.6751C19.9467 12.741 19.926 12.832 19.9493 12.9168C20.0564 13.3062 20.1142 13.7158 20.1142 14.1387C20.1142 16.6869 18.0378 18.7594 15.488 18.7532C12.9581 18.7467 10.8919 16.6804 10.8854 14.1506C10.8789 11.6008 12.9514 9.52462 15.4997 9.52462C15.8818 9.52462 16.252 9.5744 16.6072 9.66307C16.7013 9.68666 16.8006 9.65659 16.8652 9.58425L18.7645 7.44511C18.8809 7.31392 18.8361 7.10781 18.6759 7.03599C17.7054 6.59992 16.6308 6.35596 15.4999 6.35596C10.8372 6.35596 7.11911 10.4774 7.79682 15.2683C8.27826 18.6718 10.9681 21.3611 14.3716 21.842C19.1622 22.519 23.2829 18.8012 23.2829 14.1387C23.2829 12.833 22.9586 11.6021 22.3877 10.5204C22.3032 10.36 22.0843 10.3333 21.964 10.4688L20.0051 12.6751Z" fill="#FAFAFF"/>
<path d="M25.2096 8.56844L25.0577 8.58296C24.8723 8.60059 24.7645 8.80281 24.855 8.96562C25.7105 10.5061 26.1966 12.279 26.1925 14.1635C26.179 20.0624 21.2743 24.8981 15.3757 24.8307C9.51849 24.7636 4.77793 19.9634 4.80775 14.0839C4.8373 8.23451 9.71345 3.41281 15.5626 3.44677C17.0681 3.45559 18.5005 3.77759 19.7989 4.35029C19.9729 4.42703 20.1676 4.29507 20.1616 4.10503V4.09596C20.1512 3.7654 20.2682 3.4434 20.4877 3.19633L21.5248 2.02837C21.6396 1.89899 21.5976 1.69599 21.4416 1.62159C19.6312 0.758254 17.6071 0.273699 15.4706 0.278106C7.81801 0.293402 1.60356 6.55088 1.63882 14.2034C1.67382 21.8041 7.85741 27.9792 15.4612 27.9999C23.0412 28.0207 29.2582 21.9063 29.3599 14.3271C29.3954 11.6873 28.686 9.21348 27.4328 7.09818C27.3431 6.94703 27.1323 6.92655 27.0156 7.05799L26.0561 8.13859C25.8386 8.38359 25.536 8.53733 25.2099 8.56844H25.2096Z" fill="#FAFAFF"/>
<path d="M25.1748 6.92811L27.5849 4.21366C27.9743 3.775 27.6272 3.08588 27.0431 3.13774L26.0641 3.22459C25.6928 3.25751 25.3703 2.97103 25.3589 2.59848L25.3296 1.63092C25.312 1.04448 24.5866 0.781588 24.1972 1.22026L21.7956 3.92485C21.686 4.04851 21.6274 4.20951 21.6326 4.37466L21.6844 6.09277C21.6894 6.25818 21.631 6.41892 21.5214 6.54259L17.5482 11.0174C17.4725 11.1027 17.3755 11.1665 17.2672 11.2023L16.8422 11.343C16.7339 11.3788 16.6369 11.4426 16.5612 11.5279L15.0023 13.2836C14.9071 13.3907 14.8504 13.5263 14.8402 13.6691L14.7858 14.4528C14.7565 14.8731 15.1298 15.2091 15.5449 15.136L16.3331 14.997C16.4769 14.9716 16.6081 14.8983 16.7054 14.7891L18.2609 13.037C18.3366 12.9517 18.3885 12.848 18.4113 12.736L18.5007 12.2974C18.5235 12.1856 18.5754 12.0819 18.6511 11.9964L22.6258 7.51974C22.7347 7.39711 22.8858 7.32037 23.0489 7.30481L24.7512 7.14277C24.9143 7.12722 25.0657 7.05048 25.1743 6.92785L25.1748 6.92811Z" fill="#FAFAFF"/>
</g>
<path d="M4.78089 44.165C4.20889 44.165 3.67355 44.066 3.17489 43.868C2.68355 43.6627 2.25089 43.3767 1.87689 43.01C1.51022 42.6433 1.22422 42.207 1.01889 41.701C0.813553 41.1877 0.710887 40.6267 0.710887 40.018C0.710887 39.4313 0.809887 38.8923 1.00789 38.401C1.20589 37.9097 1.48455 37.477 1.84389 37.103C2.20322 36.729 2.62489 36.443 3.10889 36.245C3.60022 36.0397 4.13555 35.937 4.71489 35.937C5.38222 35.937 5.97989 36.0617 6.50789 36.311C7.04322 36.553 7.49055 36.8903 7.84989 37.323C8.21655 37.7557 8.48789 38.2617 8.66389 38.841H6.69489C6.61422 38.5697 6.48222 38.3313 6.29889 38.126C6.11555 37.9133 5.88822 37.7447 5.61689 37.62C5.34555 37.4953 5.03022 37.433 4.67089 37.433C4.24555 37.433 3.86055 37.5357 3.51589 37.741C3.17855 37.939 2.91089 38.236 2.71289 38.632C2.52222 39.0207 2.42689 39.4973 2.42689 40.062C2.42689 40.568 2.51855 41.0227 2.70189 41.426C2.88522 41.8293 3.15655 42.152 3.51589 42.394C3.88255 42.6287 4.32989 42.746 4.85789 42.746C5.24655 42.746 5.58389 42.6763 5.86989 42.537C6.16322 42.3903 6.40155 42.1923 6.58489 41.943C6.77555 41.6863 6.90755 41.3967 6.98089 41.074H4.69289V39.743H8.76289C8.79222 40.3883 8.71889 40.9823 8.54289 41.525C8.36689 42.0603 8.10289 42.526 7.75089 42.922C7.40622 43.318 6.98089 43.626 6.47489 43.846C5.97622 44.0587 5.41155 44.165 4.78089 44.165ZM12.3918 44.11C11.9664 44.11 11.5704 44.033 11.2038 43.879C10.8444 43.725 10.5291 43.5087 10.2578 43.23C9.99377 42.9513 9.78477 42.6287 9.63077 42.262C9.4841 41.888 9.41077 41.4883 9.41077 41.063C9.41077 40.6303 9.4841 40.2307 9.63077 39.864C9.78477 39.4973 9.99377 39.1747 10.2578 38.896C10.5291 38.6173 10.8444 38.401 11.2038 38.247C11.5704 38.093 11.9664 38.016 12.3918 38.016C12.8171 38.016 13.2094 38.093 13.5688 38.247C13.9354 38.401 14.2508 38.6173 14.5148 38.896C14.7861 39.1747 14.9951 39.4973 15.1418 39.864C15.2958 40.2307 15.3728 40.6303 15.3728 41.063C15.3728 41.4883 15.2958 41.888 15.1418 42.262C14.9951 42.6287 14.7861 42.9513 14.5148 43.23C14.2508 43.5087 13.9354 43.725 13.5688 43.879C13.2094 44.033 12.8171 44.11 12.3918 44.11ZM12.3918 42.757C12.6484 42.757 12.8831 42.691 13.0958 42.559C13.3084 42.427 13.4771 42.2363 13.6018 41.987C13.7338 41.7303 13.7998 41.4223 13.7998 41.063C13.7998 40.6963 13.7338 40.3883 13.6018 40.139C13.4771 39.8897 13.3084 39.7027 13.0958 39.578C12.8831 39.446 12.6484 39.38 12.3918 39.38C12.1424 39.38 11.9078 39.446 11.6878 39.578C11.4751 39.7027 11.3028 39.8897 11.1708 40.139C11.0461 40.3883 10.9838 40.6963 10.9838 41.063C10.9838 41.4223 11.0461 41.7303 11.1708 41.987C11.3028 42.2363 11.4751 42.427 11.6878 42.559C11.9078 42.691 12.1424 42.757 12.3918 42.757ZM19.8465 44V43.274C19.6558 43.5453 19.4138 43.7543 19.1205 43.901C18.8272 44.0403 18.4788 44.11 18.0755 44.11C17.4668 44.11 16.9755 43.945 16.6015 43.615C16.2275 43.285 16.0405 42.845 16.0405 42.295C16.0405 41.723 16.2678 41.2867 16.7225 40.986C17.1772 40.6853 17.8298 40.535 18.6805 40.535C18.8492 40.535 19.0105 40.5423 19.1645 40.557C19.3185 40.5643 19.4835 40.579 19.6595 40.601V40.249C19.6595 39.919 19.5715 39.6623 19.3955 39.479C19.2195 39.2957 18.9702 39.204 18.6475 39.204C18.3175 39.204 18.0572 39.2957 17.8665 39.479C17.6758 39.6623 17.5658 39.919 17.5365 40.249H16.1615C16.1908 39.7943 16.3118 39.402 16.5245 39.072C16.7445 38.7347 17.0342 38.4743 17.3935 38.291C17.7602 38.1077 18.1782 38.016 18.6475 38.016C19.4175 38.016 20.0152 38.2177 20.4405 38.621C20.8732 39.0243 21.0895 39.5853 21.0895 40.304V44H19.8465ZM17.4815 42.251C17.4815 42.493 17.5622 42.6873 17.7235 42.834C17.8922 42.9807 18.1195 43.054 18.4055 43.054C18.7942 43.054 19.0985 42.955 19.3185 42.757C19.5458 42.5517 19.6595 42.2803 19.6595 41.943V41.525C19.4835 41.4957 19.3258 41.4773 19.1865 41.47C19.0472 41.4553 18.9115 41.448 18.7795 41.448C18.3542 41.448 18.0315 41.514 17.8115 41.646C17.5915 41.778 17.4815 41.9797 17.4815 42.251ZM23.9471 44H22.4071V36.102H23.9471V44ZM30.2792 42.119C30.2792 42.7277 30.0519 43.2117 29.5972 43.571C29.1499 43.9303 28.5082 44.11 27.6722 44.11C26.8436 44.11 26.1946 43.923 25.7252 43.549C25.2632 43.1677 25.0029 42.6507 24.9442 41.998H26.4072C26.4146 42.2987 26.5356 42.5407 26.7702 42.724C27.0122 42.9 27.3202 42.988 27.6942 42.988C27.9949 42.988 28.2442 42.9403 28.4422 42.845C28.6402 42.7423 28.7392 42.5883 28.7392 42.383C28.7392 42.1997 28.6769 42.0603 28.5522 41.965C28.4276 41.8697 28.2222 41.7963 27.9362 41.745L26.8802 41.547C26.3522 41.4517 25.9379 41.261 25.6372 40.975C25.3366 40.689 25.1862 40.3187 25.1862 39.864C25.1862 39.4973 25.2852 39.1747 25.4832 38.896C25.6812 38.6173 25.9599 38.401 26.3192 38.247C26.6786 38.093 27.1002 38.016 27.5842 38.016C28.0756 38.016 28.5082 38.1003 28.8822 38.269C29.2636 38.4303 29.5642 38.665 29.7842 38.973C30.0116 39.281 30.1436 39.644 30.1802 40.062H28.7172C28.6952 39.776 28.5816 39.5523 28.3762 39.391C28.1709 39.2223 27.9069 39.138 27.5842 39.138C27.3056 39.138 27.0782 39.1893 26.9022 39.292C26.7336 39.3873 26.6492 39.5303 26.6492 39.721C26.6492 39.897 26.7116 40.029 26.8362 40.117C26.9609 40.1977 27.1552 40.2637 27.4192 40.315L28.5522 40.524C29.1242 40.634 29.5532 40.821 29.8392 41.085C30.1326 41.349 30.2792 41.6937 30.2792 42.119Z" fill="#FAFAFF"/>
<defs>
<clipPath id="clip0_3511_34562">
<rect width="28" height="28" fill="white" transform="translate(1.5)"/>
</clipPath>
</defs>
</svg>
