<svg width="19" height="19" viewBox="0 0 19 19" fill="none" xmlns="http://www.w3.org/2000/svg">
<path d="M11.3947 4.32454L4.46567 11.7524C4.33903 11.8881 4.3459 12.1006 4.48097 12.2279L7.05272 14.6513C7.18871 14.7795 7.40312 14.7727 7.53067 14.6359L14.4597 7.20805C14.5864 7.07233 14.5795 6.85986 14.4444 6.73256L11.8727 4.30911C11.7367 4.18091 11.5223 4.18778 11.3947 4.32454Z" fill="#FFCA10"/>
<path d="M12.5266 3.16095L12.5225 3.16536C12.3948 3.30095 12.401 3.51432 12.5366 3.64214L15.1084 6.06559C15.244 6.19328 15.4573 6.18706 15.5851 6.05146L15.5893 6.04706C16.3863 5.20134 16.3467 3.86964 15.501 3.0728C14.6553 2.27583 13.3236 2.31537 12.5268 3.16108L12.5266 3.16095Z" fill="#FFCA10"/>
<path d="M3.79226 12.8727L6.41262 15.3419C6.50894 15.4326 6.46797 15.5939 6.3399 15.6277L3.0496 16.4944C2.92891 16.5262 2.81678 16.4206 2.84128 16.2982L3.51122 12.9623C3.53727 12.8325 3.69581 12.7819 3.79213 12.8727H3.79226Z" fill="#FFCA10"/>
</svg>
